<svg width="181" height="44" viewBox="0 0 181 44" fill="none" xmlns="http://www.w3.org/2000/svg">
<g clip-path="url(#clip0_208_145)">
<path d="M61.7754 9.34508H50.9678V34.6558H54.76V26.5989H61.7374C68.1078 26.5989 72.2794 23.2999 72.2794 17.991C72.2794 12.682 68.1078 9.34508 61.7754 9.34508ZM61.5857 23.3369H54.76V12.6052H61.5857C66.0979 12.6052 68.2975 14.6531 68.2975 17.9901C68.2975 21.327 66.0979 23.3369 61.5857 23.3369ZM39.2216 14.1463C39.508 13.0768 39.3616 11.9593 38.807 11C37.6643 9.02078 35.1232 8.33966 33.143 9.48238L23.9 14.8193V4.14634C23.9 1.86089 22.04 0 19.7537 0C17.4673 0 15.6073 1.85998 15.6073 4.14634V14.8193L6.36435 9.48238C4.38422 8.33966 1.84402 9.02078 0.700389 11C0.148446 11.9593 0.00120156 13.0768 0.287561 14.1463C0.574824 15.2159 1.26046 16.1102 2.21891 16.664L11.4619 22.0009L2.21891 27.3369C1.25956 27.8907 0.573921 28.785 0.287561 29.8546C0.00120156 30.9241 0.147543 32.0416 0.702195 33.0009C1.46913 34.3297 2.8657 35.0723 4.30021 35.0723C5.00301 35.0723 5.71484 34.8934 6.36615 34.5176L15.6092 29.1816V39.8546C15.6092 42.1409 17.4691 44.0009 19.7555 44.0009C22.0419 44.0009 23.9018 42.1409 23.9018 39.8546V29.1816L33.1448 34.5185C33.7961 34.8943 34.508 35.0732 35.2108 35.0732C36.6453 35.0732 38.0419 34.3297 38.8088 33.0018C39.3625 32.0425 39.5098 30.925 39.2234 29.8555C38.9362 28.7859 38.2505 27.8916 37.2921 27.3379L28.0491 22.0009L37.2921 16.6649C38.2514 16.1111 38.9371 15.2168 39.2234 14.1472L39.2216 14.1463ZM16.2858 16.1382V4.14634C16.2858 2.23397 17.8422 0.677507 19.7546 0.677507C21.667 0.677507 23.2234 2.23397 23.2234 4.14634V15.2096L22.7582 15.4788C22.1927 15.8058 21.5757 16.0352 20.9389 16.1635V2.96116H18.5694V16.626C18.5694 18.3686 18.003 20.0723 16.9678 21.4679C16.4267 20.8699 15.8034 20.346 15.115 19.9142C15.8711 18.8067 16.2849 17.4806 16.2849 16.1373L16.2858 16.1382ZM2.55766 16.0777C1.75549 15.6143 1.18097 14.8663 0.941581 13.9711C0.701292 13.0759 0.82505 12.1409 1.28846 11.3379C2.2451 9.68112 4.37067 9.11201 6.0274 10.0678L15.6092 15.5998V16.1373C15.6092 16.7904 15.5008 17.4399 15.293 18.0551L3.85938 11.4553L2.67509 13.5068L14.5098 20.3388C16.0193 21.2105 17.2117 22.5528 17.9027 24.1472C17.1141 24.3171 16.349 24.5944 15.6308 24.9756C15.05 23.7669 14.1078 22.7453 12.9443 22.0741L2.55766 16.0777ZM6.0274 33.9313C4.37067 34.888 2.2451 34.318 1.28846 32.6622C0.82505 31.86 0.702195 30.9241 0.941581 30.0289C1.18187 29.1337 1.75549 28.3857 2.55766 27.9223L12.1394 22.3902L12.6046 22.6585C13.1701 22.9855 13.6778 23.4038 14.1078 23.8916L2.67419 30.4923L3.85847 32.5438L15.6932 25.7118C17.2026 24.8401 18.9615 24.4788 20.6868 24.6775C20.4393 25.4453 20.2975 26.2466 20.2677 27.0596C18.9307 26.9575 17.5748 27.2629 16.4113 27.935L6.0265 33.9304L6.0274 33.9313ZM23.2243 27.8627V39.8537C23.2243 41.7669 21.6679 43.3225 19.7555 43.3225C17.8431 43.3225 16.2867 41.766 16.2867 39.8537V28.7904L16.7519 28.5221C17.3174 28.1951 17.9344 27.9657 18.5712 27.8374V41.0388H20.9407V27.374C20.9407 25.6314 21.5071 23.9277 22.5423 22.5321C23.0834 23.1301 23.7067 23.654 24.3951 24.0858C23.639 25.1933 23.2252 26.5194 23.2252 27.8627H23.2243ZM36.9515 27.9223C37.7537 28.3857 38.3282 29.1337 38.5676 30.0289C38.8079 30.9241 38.6841 31.8591 38.2207 32.6622C37.2641 34.3189 35.1385 34.888 33.4818 33.9313L23.9 28.3993V27.8618C23.9 27.2078 24.0084 26.5592 24.2162 25.944L35.6498 32.5447L36.8341 30.4932L24.9994 23.6612C23.4899 22.7895 22.2975 21.4472 21.6064 19.8528C22.3951 19.6829 23.1602 19.4056 23.8783 19.0244C24.4592 20.2331 25.4014 21.2547 26.5649 21.9259L36.9497 27.9214L36.9515 27.9223ZM27.3707 21.6098L26.9054 21.3415C26.34 21.0145 25.8323 20.5953 25.4023 20.1084L36.8359 13.5077L35.6516 11.4562L23.8169 18.2882C22.3074 19.1599 20.5486 19.5212 18.8232 19.3225C19.0708 18.5547 19.2126 17.7534 19.2424 16.9404C20.5793 17.0425 21.9353 16.7371 23.0979 16.065L33.4827 10.0696C35.1394 9.11292 37.265 9.68293 38.2216 11.3397C38.685 12.1418 38.8079 13.0768 38.5685 13.9729C38.3282 14.8681 37.7546 15.6161 36.9524 16.0795L27.3707 21.6116V21.6098ZM117.183 18.3496C120.026 18.3496 122.188 19.9422 122.681 22.2936H126.474C125.753 18.122 122.113 15.1644 117.184 15.1644C111.231 15.1644 107.059 19.5248 107.059 25.0994C107.059 30.6739 111.231 35.0723 117.184 35.0723C122.113 35.0723 125.754 32.1147 126.474 27.9431H122.681C122.188 30.2945 120.027 31.8871 117.183 31.8871C113.201 31.8871 110.85 28.9675 110.85 25.0994C110.85 21.2313 113.202 18.3496 117.183 18.3496ZM157.611 13.1364H161.251V9.34417H157.611V13.1364ZM157.611 34.6558H161.213V15.6956H157.611V34.6558ZM74.6146 20.7769V34.6558H78.2171V20.8528C78.2171 19.6775 78.9 18.9946 80.0753 18.9946H83.526V15.6956H79.8097C76.1692 15.6956 74.6146 17.9332 74.6146 20.7769ZM175.087 23.9621L170.727 23.1653C169.058 22.8618 168.337 22.1039 168.337 20.8898C168.337 19.5248 169.588 18.8799 171.598 18.8799H179.485V15.6947H172.129C167.389 15.6947 164.658 17.6667 164.658 21.0795C164.658 23.7715 166.175 25.7814 169.853 26.4264L174.176 27.1852C175.92 27.4887 177.095 28.019 177.095 29.4228C177.095 30.7498 175.996 31.4706 173.948 31.4706H165.454V34.6558H173.531C178.195 34.6558 180.811 32.7976 180.811 29.2331C180.811 26.2755 178.65 24.607 175.085 23.9621H175.087ZM146.209 31.7353H144.958L139.801 15.6947H135.781L141.128 31.6594C141.811 33.6694 142.758 35.0723 145.564 35.0723C148.37 35.0723 149.204 33.6694 149.886 31.6594L155.309 15.6947H151.403L146.208 31.7353H146.209ZM94.7844 15.1644C88.8314 15.1644 84.6597 19.5248 84.6597 25.0994C84.6597 30.6739 88.8314 35.0723 94.7844 35.0723C100.737 35.0723 104.871 30.6739 104.871 25.0994C104.871 19.5248 100.737 15.1644 94.7844 15.1644ZM94.7844 31.8871C90.8025 31.8871 88.452 28.9295 88.452 25.0994C88.452 21.2692 90.8034 18.3496 94.7844 18.3496C98.7654 18.3496 101.079 21.2692 101.079 25.0994C101.079 28.9295 98.7654 31.8871 94.7844 31.8871ZM129.915 34.6558H133.518V15.6956H129.915V34.6558ZM129.915 13.1364H133.556V9.34417H129.915V13.1364Z" fill="black"/>
</g>
<defs>
<clipPath id="clip0_208_145">
<rect width="180.668" height="44" fill="white" transform="translate(0.144684)"/>
</clipPath>
</defs>
</svg>
