<svg width="419" height="72" viewBox="0 0 419 72" fill="none" xmlns="http://www.w3.org/2000/svg">
<rect x="0.5" y="0.5" width="71" height="71" rx="9.31818" fill="black"/>
<rect x="0.5" y="0.5" width="71" height="71" rx="9.31818" stroke="#F5F5F5"/>
<path d="M54.4755 42.364L43.3179 35.9224C42.0688 35.2012 41.0556 34.1035 40.4315 32.8049C39.6599 33.2145 38.8378 33.5125 37.9905 33.6949C38.733 35.408 40.0141 36.8502 41.636 37.7868L54.3513 45.1271L53.0789 47.3313L40.7945 40.2394C40.5712 40.9013 40.4548 41.5982 40.4548 42.2999V42.8774L50.7495 48.8211C52.5295 49.8489 54.8132 49.2365 55.8411 47.4575C56.339 46.5956 56.471 45.5901 56.2138 44.6283C55.9556 43.6665 55.3393 42.8628 54.4774 42.3649L54.4755 42.364ZM38.9931 36.5717C37.8809 38.0712 37.2723 39.9017 37.2723 41.7739V56.4555H34.7265V42.2718C34.0423 42.4096 33.3794 42.6571 32.7718 43.0074L32.272 43.2957V55.1821C32.272 57.2378 33.9443 58.9091 35.9989 58.9091C38.0536 58.9091 39.7259 57.2368 39.7259 55.1821V42.2989C39.7259 40.8557 40.1704 39.43 40.9828 38.241C40.2432 37.7771 39.5745 37.2142 38.9931 36.5717ZM50.7485 23.1818L39.591 29.6234C38.3409 30.3455 36.8841 30.6736 35.4486 30.5639C35.4166 31.4374 35.2642 32.2983 34.9983 33.1233C36.853 33.3368 38.7427 32.9486 40.3636 32.012L53.0789 24.6716L54.3513 26.8758L42.0669 33.9676C42.5279 34.4918 43.0734 34.9421 43.6819 35.2925L44.1817 35.5807L54.4765 29.637C55.3383 29.1391 55.9556 28.3355 56.2128 27.3737C56.471 26.4118 56.338 25.4073 55.8401 24.5445C54.8123 22.7645 52.5285 22.155 50.7485 23.1818ZM17.5234 29.638L28.6809 36.0796C29.93 36.8007 30.9433 37.8984 31.5674 39.197C32.339 38.7875 33.161 38.4895 34.0083 38.307C33.2658 36.594 31.9847 35.1517 30.3629 34.2151L17.6476 26.8758L18.92 24.6716L31.2044 31.7635C31.4276 31.1016 31.5441 30.4047 31.5441 29.703V29.1255L21.2493 23.1818C19.4693 22.154 17.1856 22.7664 16.1578 24.5464C15.6609 25.4083 15.5289 26.4128 15.787 27.3746C16.0452 28.3365 16.6615 29.1401 17.5234 29.638ZM36.5512 41.438C36.5832 40.5645 36.7356 39.7037 37.0015 38.8787C35.1468 38.6652 33.2571 39.0534 31.6363 39.99L18.921 47.3303L17.6486 45.1262L29.9329 38.0343C29.4719 37.5102 28.9265 37.0599 28.3179 36.7095L27.8181 36.4212L17.5234 42.3649C16.6615 42.8628 16.0442 43.6665 15.787 44.6283C15.5289 45.5901 15.6618 46.5946 16.1597 47.4575C17.1876 49.2375 19.4713 49.8489 21.2513 48.8211L32.4088 42.3795C33.6589 41.6574 35.1148 41.3284 36.5512 41.438ZM33.0057 35.4293C34.118 33.9298 34.7265 32.0993 34.7265 30.2271V15.5455H37.2723V29.7302C37.9566 29.5924 38.6195 29.3449 39.227 28.9945L39.7269 28.7053V16.8179C39.7269 14.7632 38.0546 13.0909 35.9999 13.0909C33.9452 13.0909 32.273 14.7632 32.273 16.8179V29.702C32.273 31.1453 31.8285 32.571 31.0161 33.7599C31.7557 34.2239 32.4244 34.7868 33.0057 35.4293Z" fill="white"/>
<path d="M81.515 49V23.1H92.245C98.424 23.1 102.309 26.282 102.309 31.536C102.309 36.716 98.424 39.935 92.208 39.935H85.215V49H81.515ZM92.06 36.753C96.463 36.753 98.424 34.718 98.424 31.536C98.424 28.28 96.463 26.282 92.06 26.282H85.215V36.753H92.06ZM108.257 35.532V49H104.742V35.458C104.742 32.683 106.259 30.5 109.811 30.5H113.437V33.719H110.07C108.923 33.719 108.257 34.385 108.257 35.532ZM124.105 49.407C118.296 49.407 114.226 45.115 114.226 39.676C114.226 34.237 118.296 29.982 124.105 29.982C129.914 29.982 133.947 34.237 133.947 39.676C133.947 45.115 129.914 49.407 124.105 49.407ZM124.105 46.299C127.99 46.299 130.247 43.413 130.247 39.676C130.247 35.939 127.99 33.09 124.105 33.09C120.22 33.09 117.926 35.939 117.926 39.676C117.926 43.413 120.22 46.299 124.105 46.299ZM135.952 39.676C135.952 34.237 140.022 29.982 145.831 29.982C150.641 29.982 154.193 32.868 154.896 36.938H151.196C150.715 34.644 148.606 33.09 145.831 33.09C141.946 33.09 139.652 35.939 139.652 39.676C139.652 43.45 141.946 46.299 145.831 46.299C148.606 46.299 150.715 44.745 151.196 42.451H154.896C154.193 46.521 150.641 49.407 145.831 49.407C140.022 49.407 135.952 45.152 135.952 39.676ZM158.217 49V30.5H161.732V49H158.217ZM158.217 27.318V23.1H161.769V27.318H158.217ZM169.422 46.077L164.205 30.5H168.127L173.159 46.151H174.38L179.449 30.5H183.26L177.969 46.077C177.303 48.038 176.452 49.407 173.751 49.407C171.013 49.407 170.088 48.038 169.422 46.077ZM185.698 49V30.5H189.213V49H185.698ZM185.698 27.318V23.1H189.25V27.318H185.698ZM207.041 33.608H199.345C197.384 33.608 196.163 34.237 196.163 35.569C196.163 36.753 196.866 37.493 198.494 37.789L202.749 38.566C206.227 39.195 208.336 40.823 208.336 43.709C208.336 47.187 205.783 49 201.232 49H193.351V45.892H201.639C203.637 45.892 204.71 45.189 204.71 43.894C204.71 42.525 203.563 42.007 201.861 41.711L197.643 40.971C194.054 40.342 192.574 38.381 192.574 35.754C192.574 32.424 195.238 30.5 199.863 30.5H207.041V33.608ZM232.053 49.407C223.839 49.407 218.326 43.45 218.326 35.976C218.326 28.502 223.839 22.582 232.053 22.582C240.267 22.582 245.743 28.502 245.743 35.976C245.743 43.45 240.267 49.407 232.053 49.407ZM222.211 35.976C222.174 41.822 225.911 46.225 232.053 46.225C238.195 46.225 241.895 41.822 241.858 35.976C241.821 30.167 238.195 25.764 232.053 25.764C225.911 25.764 222.248 30.167 222.211 35.976ZM262.172 38.603C262.172 34.903 260.507 33.127 257.399 33.127C254.291 33.127 252.589 34.903 252.589 38.603V49H249.074V38.011C249.074 32.683 252.478 29.982 257.399 29.982C262.283 29.982 265.687 32.683 265.687 38.011V49H262.172V38.603ZM278.736 49.407C272.816 49.407 268.894 45.115 268.894 39.75C268.894 34.274 272.52 29.982 278.514 29.982C283.583 29.982 288.319 33.238 288.134 40.897H272.668C273.038 43.968 275.11 46.336 278.736 46.336C281.511 46.336 283.139 45.3 284.027 43.413H287.912C286.802 47.076 283.472 49.407 278.736 49.407ZM284.101 37.863C283.62 34.792 281.548 33.053 278.477 33.053C275.295 33.053 273.26 34.903 272.742 37.863H284.101ZM298.401 35.976C298.401 28.502 303.84 22.582 311.98 22.582C318.27 22.582 322.932 26.134 324.227 31.203H320.046C319.084 27.984 316.161 25.764 311.98 25.764C305.912 25.764 302.286 30.167 302.286 35.976C302.286 41.785 305.912 46.225 311.98 46.225C316.124 46.225 319.084 44.005 320.046 40.786H324.227C322.932 45.855 318.27 49.407 311.98 49.407C303.84 49.407 298.401 43.45 298.401 35.976ZM336.073 49.407C330.264 49.407 326.194 45.115 326.194 39.676C326.194 34.237 330.264 29.982 336.073 29.982C341.882 29.982 345.915 34.237 345.915 39.676C345.915 45.115 341.882 49.407 336.073 49.407ZM336.073 46.299C339.958 46.299 342.215 43.413 342.215 39.676C342.215 35.939 339.958 33.09 336.073 33.09C332.188 33.09 329.894 35.939 329.894 39.676C329.894 43.413 332.188 46.299 336.073 46.299ZM352.693 35.532V49H349.178V35.458C349.178 32.683 350.695 30.5 354.247 30.5H357.873V33.719H354.506C353.359 33.719 352.693 34.385 352.693 35.532ZM368.54 49.407C362.62 49.407 358.698 45.115 358.698 39.75C358.698 34.274 362.324 29.982 368.318 29.982C373.387 29.982 378.123 33.238 377.938 40.897H362.472C362.842 43.968 364.914 46.336 368.54 46.336C371.315 46.336 372.943 45.3 373.831 43.413H377.716C376.606 47.076 373.276 49.407 368.54 49.407ZM373.905 37.863C373.424 34.792 371.352 33.053 368.281 33.053C365.099 33.053 363.064 34.903 362.546 37.863H373.905Z" fill="black"/>
<path d="M390.587 31.121C388.145 31.121 386.506 29.35 386.506 27.128C386.506 24.906 388.145 23.146 390.587 23.146C393.029 23.146 394.657 24.906 394.657 27.128C394.657 29.35 393.029 31.121 390.587 31.121ZM387.661 27.128C387.65 28.866 388.761 30.175 390.587 30.175C392.413 30.175 393.513 28.866 393.502 27.128C393.491 25.401 392.413 24.092 390.587 24.092C388.761 24.092 387.672 25.401 387.661 27.128ZM398.518 26.281C397.407 26.281 396.714 27.106 396.714 28.239C396.714 29.372 397.407 30.186 398.518 30.186C399.629 30.186 400.333 29.372 400.333 28.239C400.333 27.095 399.629 26.281 398.518 26.281ZM395.724 33.035V25.5H396.626L396.736 26.237C397.022 25.797 397.726 25.346 398.595 25.346C400.355 25.346 401.433 26.633 401.433 28.239C401.433 29.834 400.311 31.121 398.617 31.121C397.726 31.121 397.066 30.725 396.769 30.329V33.035H395.724ZM404.96 31.121C403.2 31.121 402.034 29.845 402.034 28.25C402.034 26.622 403.112 25.346 404.894 25.346C406.401 25.346 407.809 26.314 407.754 28.591H403.156C403.266 29.504 403.882 30.208 404.96 30.208C405.785 30.208 406.269 29.9 406.533 29.339H407.688C407.358 30.428 406.368 31.121 404.96 31.121ZM406.555 27.689C406.412 26.776 405.796 26.259 404.883 26.259C403.937 26.259 403.332 26.809 403.178 27.689H406.555ZM412.61 27.909C412.61 26.809 412.115 26.281 411.191 26.281C410.267 26.281 409.761 26.809 409.761 27.909V31H408.716V27.733C408.716 26.149 409.728 25.346 411.191 25.346C412.643 25.346 413.655 26.149 413.655 27.733V31H412.61V27.909Z" fill="black"/>
</svg>
