<svg width="181" height="44" viewBox="0 0 181 44" fill="none" xmlns="http://www.w3.org/2000/svg">
<g clip-path="url(#clip0_208_148)">
<path d="M36.2738 27.9228L25.889 21.9273C24.7264 21.2561 23.7833 20.2344 23.2025 19.0257C22.4843 19.407 21.7192 19.6843 20.9306 19.8541C21.6216 21.4485 22.814 22.7909 24.3235 23.6626L36.1582 30.4946L34.9739 32.5461L23.5403 25.9454C23.3326 26.5614 23.2242 27.21 23.2242 27.8631V28.4006L32.8059 33.9327C34.4626 34.8893 36.5882 34.3193 37.5448 32.6635C38.0083 31.8613 38.1311 30.9255 37.8917 30.0303C37.6514 29.1351 37.0778 28.3871 36.2757 27.9237L36.2738 27.9228ZM21.8637 22.5316C20.8285 23.9273 20.2621 25.631 20.2621 27.3735V41.0384H17.8926V27.8369C17.2558 27.9652 16.6388 28.1956 16.0733 28.5217L15.6081 28.79V39.8532C15.6081 41.7665 17.1645 43.322 19.0769 43.322C20.9893 43.322 22.5458 41.7656 22.5458 39.8532V27.8622C22.5458 26.519 22.9595 25.192 23.7156 24.0854C23.0272 23.6536 22.4039 23.1296 21.8628 22.5316H21.8637ZM32.805 10.0691L22.4202 16.0646C21.2567 16.7367 19.9008 17.042 18.5647 16.9399C18.5349 17.7529 18.3931 18.5542 18.1456 19.322C19.8719 19.5208 21.6307 19.1594 23.1392 18.2877L34.9739 11.4557L36.1582 13.5072L24.7246 20.108C25.1537 20.5958 25.6614 21.0149 26.2278 21.341L26.693 21.6093L36.2747 16.0772C37.0769 15.6138 37.6514 14.8659 37.8908 13.9706C38.1311 13.0754 38.0074 12.1405 37.5439 11.3374C36.5873 9.68067 34.4617 9.11156 32.805 10.0673V10.0691ZM1.88089 16.0781L12.2657 22.0736C13.4283 22.7448 14.3714 23.7665 14.9523 24.9752C15.6704 24.594 16.4355 24.3166 17.2242 24.1468C16.5331 22.5524 15.3407 21.21 13.8312 20.3383L1.99652 13.5072L3.1808 11.4557L14.6144 18.0565C14.8222 17.4404 14.9306 16.7918 14.9306 16.1387V15.6012L5.34882 10.0691C3.69209 9.11247 1.56653 9.68248 0.609888 11.3392C0.147377 12.1414 0.0245224 13.0763 0.264812 13.9715C0.505101 14.8668 1.07872 15.6147 1.88089 16.0781ZM19.5909 27.061C19.6207 26.248 19.7626 25.4467 20.0101 24.6789C18.2838 24.4801 16.525 24.8415 15.0164 25.7132L3.1817 32.5452L1.99742 30.4937L13.431 23.893C13.0019 23.4052 12.4943 22.986 11.9279 22.6599L11.4626 22.3916L1.88089 27.9237C1.07872 28.3871 0.504197 29.1351 0.264812 30.0303C0.0245224 30.9255 0.14828 31.8604 0.611695 32.6635C1.56833 34.3202 3.6939 34.8893 5.35063 33.9327L15.7355 27.9372C16.899 27.2651 18.2549 26.9598 19.5918 27.0619L19.5909 27.061ZM16.291 21.4684C17.3262 20.0727 17.8926 18.369 17.8926 16.6265V2.96161H20.2621V16.164C20.899 16.0357 21.5159 15.8053 22.0814 15.4792L22.5467 15.21V4.14589C22.5467 2.23351 20.9902 0.677055 19.0778 0.677055C17.1654 0.677055 15.609 2.23351 15.609 4.14589V16.1378C15.609 17.481 15.1953 18.808 14.4392 19.9146C15.1275 20.3464 15.7508 20.8704 16.2919 21.4684H16.291ZM61.0986 9.34463H50.291V34.6554H54.0832V26.5985H61.0607C67.431 26.5985 71.6027 23.2995 71.6027 17.9905C71.6027 12.6816 67.431 9.34463 61.0986 9.34463ZM60.9089 23.3374H54.0832V12.6057H60.9089C65.4211 12.6057 67.6207 14.6536 67.6207 17.9905C67.6207 21.3275 65.4211 23.3374 60.9089 23.3374ZM156.933 34.6554H160.536V15.6951H156.933V34.6554ZM129.238 13.1369H132.878V9.34463H129.238V13.1369ZM145.531 31.7358H144.28L139.123 15.6951H135.103L140.45 31.6599C141.133 33.6698 142.081 35.0727 144.886 35.0727C147.692 35.0727 148.527 33.6698 149.209 31.6599L154.632 15.6951H150.726L145.53 31.7358H145.531ZM156.933 13.1369H160.574V9.34463H156.933V13.1369ZM174.41 23.9625L170.05 23.1658C168.381 22.8622 167.66 22.1043 167.66 20.8902C167.66 19.5253 168.912 18.8803 170.922 18.8803H178.809V15.6951H171.452C166.712 15.6951 163.981 17.6671 163.981 21.0799C163.981 23.7719 165.498 25.7818 169.176 26.4268L173.499 27.1856C175.243 27.4892 176.418 28.0194 176.418 29.4232C176.418 30.7502 175.319 31.4711 173.271 31.4711H164.777V34.6563H172.854C177.518 34.6563 180.135 32.7981 180.135 29.2335C180.135 26.276 177.973 24.6075 174.408 23.9625H174.41ZM73.9369 20.7773V34.6563H77.5394V20.8532C77.5394 19.678 78.2224 18.995 79.3976 18.995H82.8484V15.696H79.132C75.4916 15.696 73.9369 17.9336 73.9369 20.7773ZM94.1067 15.1649C88.1537 15.1649 83.9821 19.5253 83.9821 25.0998C83.9821 30.6743 88.1537 35.0727 94.1067 35.0727C100.06 35.0727 104.193 30.6743 104.193 25.0998C104.193 19.5253 100.06 15.1649 94.1067 15.1649ZM94.1067 31.8875C90.1248 31.8875 87.7743 28.93 87.7743 25.0998C87.7743 21.2696 90.1257 18.35 94.1067 18.35C98.0878 18.35 100.401 21.2696 100.401 25.0998C100.401 28.93 98.0878 31.8875 94.1067 31.8875ZM129.238 34.6554H132.84V15.6951H129.238V34.6554ZM116.505 18.35C119.349 18.35 121.511 19.9426 122.004 22.294H125.796C125.075 18.1224 121.436 15.1649 116.506 15.1649C110.552 15.1649 106.381 19.5253 106.381 25.0998C106.381 30.6743 110.553 35.0727 116.506 35.0727C121.436 35.0727 125.076 32.1152 125.796 27.9435H122.004C121.511 30.2949 119.35 31.8875 116.505 31.8875C112.523 31.8875 110.173 28.9679 110.173 25.0998C110.173 21.2317 112.524 18.35 116.505 18.35Z" fill="white"/>
</g>
<defs>
<clipPath id="clip0_208_148">
<rect width="179.991" height="42.6459" fill="white" transform="translate(0.144684 0.677055)"/>
</clipPath>
</defs>
</svg>
