<?xml version="1.0" encoding="UTF-8"?>
<svg id="Layer_1" data-name="Layer 1" xmlns="http://www.w3.org/2000/svg" viewBox="0 0 434.17 487.08">
  <defs>
    <style>
      .cls-1 {
        fill: #000;
        stroke-width: 0px;
      }
    </style>
  </defs>
  <path class="cls-1" d="M411.2,302.62l-102.32-59.08,102.32-59.07c10.62-6.13,18.21-16.03,21.38-27.87,3.17-11.84,1.55-24.21-4.59-34.83-12.65-21.91-40.78-29.45-62.7-16.8l-102.32,59.08V45.9c0-25.3-20.59-45.9-45.9-45.9s-45.9,20.59-45.9,45.9v118.15l-102.32-59.08c-21.92-12.65-50.04-5.11-62.7,16.8C.04,132.39-1.59,144.76,1.58,156.6c3.18,11.84,10.77,21.74,21.38,27.87l102.32,59.08-102.32,59.07c-10.62,6.13-18.21,16.03-21.38,27.87-3.17,11.84-1.55,24.21,4.59,34.83,8.49,14.71,23.95,22.93,39.83,22.93,7.78,0,15.66-1.98,22.87-6.14l102.32-59.07v118.15c0,25.31,20.59,45.9,45.9,45.9s45.9-20.59,45.9-45.9v-118.15l102.32,59.08c7.21,4.16,15.09,6.14,22.87,6.14,15.88,0,31.34-8.23,39.83-22.93,6.13-10.62,7.76-22.99,4.59-34.83-3.18-11.84-10.77-21.74-21.38-27.87ZM369.05,111.46c18.34-10.59,41.87-4.28,52.46,14.06,5.13,8.88,6.49,19.23,3.84,29.15-2.66,9.91-9.01,18.19-17.89,23.32l-106.07,61.24-5.15-2.97c-6.26-3.62-11.88-8.26-16.64-13.65l126.57-73.07-13.11-22.71-131.01,75.63c-16.71,9.65-36.18,13.65-55.28,11.45,2.74-8.5,4.31-17.37,4.64-26.37,14.8,1.13,29.81-2.25,42.68-9.69l114.96-66.37ZM178.68,178.65V45.9c0-21.17,17.23-38.4,38.4-38.4s38.4,17.23,38.4,38.4v122.47l-5.15,2.98c-6.26,3.62-13.09,6.16-20.14,7.58V32.78h-26.23v151.27c0,19.29-6.27,38.15-17.73,53.6-5.99-6.62-12.89-12.42-20.51-17.2,8.37-12.26,12.95-26.94,12.95-41.81ZM26.71,177.98c-8.88-5.13-15.24-13.41-17.89-23.32-2.66-9.91-1.29-20.26,3.84-29.15,10.59-18.34,34.12-24.64,52.46-14.06l106.07,61.24v5.95c0,7.23-1.2,14.42-3.5,21.23L41.12,126.81l-13.11,22.71,131.01,75.63c16.71,9.65,29.91,24.51,37.56,42.16-8.73,1.88-17.2,4.95-25.15,9.17-6.43-13.38-16.86-24.69-29.74-32.12L26.71,177.98ZM65.12,375.62c-18.34,10.59-41.87,4.28-52.46-14.05-5.13-8.88-6.49-19.24-3.84-29.15,2.66-9.91,9.01-18.19,17.89-23.32l106.07-61.24,5.15,2.97c6.26,3.62,11.88,8.25,16.64,13.65l-126.57,73.07,13.11,22.71,131.01-75.63c16.71-9.65,36.18-13.65,55.28-11.45-2.74,8.5-4.31,17.37-4.64,26.37-14.8-1.13-29.81,2.25-42.69,9.69l-114.96,66.37ZM255.49,308.44v132.74c0,21.18-17.23,38.4-38.4,38.4s-38.4-17.23-38.4-38.4v-122.47l5.15-2.97c6.26-3.62,13.09-6.16,20.14-7.58v146.14h26.23v-151.27c0-19.29,6.27-38.15,17.73-53.6,5.99,6.62,12.89,12.42,20.51,17.2-8.37,12.26-12.95,26.94-12.95,41.81ZM421.51,361.57c-10.59,18.34-34.12,24.64-52.46,14.05l-106.07-61.24v-5.95c0-7.24,1.2-14.42,3.5-21.23l126.57,73.07,13.11-22.71-131.01-75.63c-16.71-9.65-29.91-24.51-37.56-42.16,8.73-1.88,17.2-4.95,25.15-9.17,6.43,13.38,16.86,24.69,29.74,32.12l114.96,66.37c8.88,5.13,15.24,13.41,17.89,23.32,2.66,9.91,1.29,20.26-3.84,29.15Z"/>
</svg>