<svg width="1024" height="1024" viewBox="0 0 1024 1024" fill="none" xmlns="http://www.w3.org/2000/svg">
<path fill-rule="evenodd" clip-rule="evenodd" d="M436.107 138.158C436.107 95.2293 470.908 60.4286 513.837 60.4286C556.765 60.4286 591.566 95.2293 591.566 138.158V373.667L795.523 255.913C832.7 234.448 880.239 247.186 901.703 284.364C923.168 321.541 910.43 369.08 873.252 390.544L669.296 508.299L873.252 626.053C910.43 647.518 923.168 695.056 901.703 732.234C880.239 769.411 832.7 782.149 795.523 760.685L591.566 642.93V878.439C591.566 921.368 556.765 956.169 513.837 956.169C470.908 956.169 436.107 921.368 436.107 878.439V642.93L232.15 760.685C194.973 782.149 147.434 769.411 125.97 732.234C104.505 695.056 117.243 647.518 154.421 626.053L358.377 508.299L154.421 390.544C117.243 369.08 104.505 321.541 125.97 284.364C147.434 247.186 194.973 234.448 232.15 255.913L436.107 373.667V138.158Z" fill="white"/>
<path d="M874.302 626.737L675.407 512L874.302 397.263C899.417 382.779 915 355.785 915 326.767C915 312.555 911.222 298.539 904.085 286.177C881.662 247.364 831.802 234.015 792.932 256.42L594.062 371.157V141.732C594.062 120.018 585.591 99.612 570.231 84.2396C554.87 68.892 534.423 60.4286 512.691 60.4286C467.82 60.4286 431.32 96.8978 431.32 141.732V371.182L232.45 256.469C193.605 234.064 143.745 247.413 121.297 286.227C98.8739 325.065 112.234 374.883 151.079 397.287L349.974 512L151.079 626.737C125.965 641.221 110.382 668.24 110.382 697.233C110.382 711.421 114.16 725.461 121.297 737.798C132.163 756.6 149.721 770.073 170.712 775.674C177.726 777.549 184.838 778.487 191.901 778.487C206.002 778.487 219.905 774.785 232.45 767.556L431.32 652.843V882.293C431.32 904.007 439.791 924.413 455.151 939.76C470.512 955.108 490.934 963.572 512.666 963.572C557.537 963.572 594.037 927.102 594.037 882.293V652.843L792.907 767.556C805.699 774.934 819.652 778.437 833.457 778.437C861.609 778.437 888.996 763.855 904.06 737.798C926.483 698.985 913.123 649.167 874.278 626.737H874.302ZM796.661 761.091L594.037 644.207V623.974C594.037 622.37 594.086 620.791 594.136 619.212C594.136 618.693 594.21 618.175 594.234 617.632C594.284 616.571 594.358 615.51 594.457 614.449C594.506 613.833 594.58 613.216 594.629 612.623C594.728 611.661 594.827 610.699 594.951 609.712C595.025 609.07 595.123 608.429 595.222 607.787C595.346 606.85 595.494 605.912 595.667 604.999C595.766 604.357 595.889 603.716 596.012 603.074C596.185 602.137 596.383 601.224 596.58 600.311C596.729 599.669 596.852 599.028 597 598.411C597.222 597.473 597.47 596.536 597.692 595.623C597.84 595.006 598.013 594.414 598.161 593.797C598.433 592.81 598.729 591.823 599.05 590.836C599.223 590.293 599.371 589.75 599.544 589.232C599.569 589.133 599.618 589.034 599.643 588.936L842.05 728.767L865.19 688.72L618.855 546.619L618.213 546.249L616.114 545.039L611.546 542.399C607.817 540.253 604.162 537.933 600.655 535.49C593.617 530.58 586.999 525.102 580.899 519.082C577.837 516.071 574.923 512.913 572.108 509.631C570.651 507.929 569.243 506.202 567.86 504.425C567.391 503.833 566.971 503.216 566.502 502.624C565.613 501.439 564.724 500.255 563.859 499.071C563.341 498.33 562.847 497.59 562.328 496.85C561.587 495.764 560.822 494.654 560.106 493.543C559.587 492.754 559.093 491.94 558.599 491.125C557.932 490.04 557.266 488.954 556.624 487.868C556.13 487.029 555.661 486.166 555.167 485.327C554.549 484.241 553.957 483.155 553.364 482.045C552.895 481.157 552.45 480.293 552.006 479.405C551.438 478.294 550.894 477.184 550.376 476.074C549.956 475.161 549.536 474.272 549.116 473.359C548.598 472.224 548.128 471.089 547.635 469.954C547.239 469.041 546.869 468.104 546.499 467.191C546.326 466.771 546.178 466.327 546.005 465.883C546.4 465.809 546.795 465.686 547.215 465.612C548.129 465.414 549.018 465.192 549.931 464.97C551.141 464.674 552.351 464.378 553.561 464.057C554.475 463.81 555.364 463.564 556.278 463.317C557.463 462.971 558.649 462.626 559.809 462.256C560.698 461.984 561.612 461.688 562.501 461.392C563.662 460.997 564.847 460.603 566.008 460.183C566.897 459.862 567.761 459.566 568.65 459.221C569.836 458.777 570.996 458.308 572.157 457.839C572.997 457.494 573.861 457.173 574.7 456.803C575.911 456.285 577.096 455.766 578.281 455.224C579.072 454.878 579.862 454.533 580.627 454.163C581.936 453.546 583.22 452.904 584.505 452.238C585.147 451.917 585.813 451.596 586.455 451.251C588.382 450.239 590.283 449.203 592.185 448.117L595.741 446.069C595.741 446.069 595.84 446.291 595.889 446.39C596.087 446.884 596.309 447.352 596.506 447.821C596.926 448.808 597.371 449.77 597.815 450.757C598.087 451.325 598.359 451.868 598.605 452.411C599.025 453.299 599.47 454.163 599.914 455.026C600.211 455.594 600.507 456.186 600.828 456.753C601.273 457.592 601.717 458.407 602.186 459.246C602.507 459.813 602.853 460.405 603.174 460.973C603.643 461.787 604.137 462.577 604.631 463.391C604.977 463.958 605.323 464.501 605.693 465.069C606.212 465.883 606.755 466.673 607.298 467.487C607.644 468.005 607.99 468.523 608.36 469.041C608.977 469.905 609.595 470.744 610.212 471.608C610.533 472.052 610.854 472.471 611.175 472.915C611.249 473.014 611.324 473.113 611.398 473.211L611.323 473.261L614.139 476.641L616.139 479.084L616.213 479.035C623.77 487.671 632.413 495.172 642.069 501.316C643.575 502.278 645.106 503.216 646.662 504.104L870.549 633.276C905.838 653.633 917.963 698.886 897.59 734.146C877.216 769.406 831.925 781.522 796.636 761.165L796.661 761.091ZM586.579 882.293C586.579 923.006 553.438 956.12 512.691 956.12C492.959 956.12 474.389 948.446 460.436 934.505C446.483 920.564 438.778 902.008 438.778 882.293V648.525L456.312 638.408C466.684 632.413 477.846 628.168 489.527 625.726V905.413H535.806V612.796C535.806 595.524 538.72 578.523 544.498 562.262C545.239 560.14 546.054 558.068 546.869 555.995C547.165 555.279 547.486 554.589 547.783 553.873C548.351 552.516 548.919 551.183 549.536 549.851C549.907 549.037 550.326 548.222 550.721 547.408C551.289 546.224 551.857 545.039 552.45 543.855C552.895 542.991 553.339 542.153 553.808 541.314C554.401 540.203 554.994 539.093 555.636 537.983C556.13 537.119 556.624 536.28 557.142 535.416C557.784 534.355 558.402 533.294 559.068 532.258C559.612 531.419 560.155 530.58 560.698 529.741C561.365 528.705 562.057 527.693 562.748 526.682C563.316 525.867 563.909 525.028 564.477 524.214C565.193 523.202 565.934 522.215 566.699 521.228C567.292 520.439 567.909 519.649 568.527 518.86C568.823 518.489 569.119 518.144 569.416 517.774C580.529 530.087 593.444 540.499 607.866 548.815L611.422 550.863C604.137 560.362 598.334 570.849 594.136 582.101C589.123 595.549 586.579 609.638 586.579 623.974V882.293ZM431.296 644.207L228.672 761.091C211.583 770.961 191.678 773.576 172.614 768.469C153.549 763.361 137.621 751.147 127.743 734.072C121.248 722.845 117.84 710.113 117.84 697.233C117.84 670.905 131.99 646.378 154.808 633.202L357.432 516.318L374.966 526.435C376.349 527.224 377.707 528.063 379.041 528.902C379.485 529.198 379.93 529.494 380.374 529.791C381.263 530.358 382.128 530.95 382.992 531.542C383.51 531.912 384.029 532.283 384.548 532.653C385.313 533.196 386.079 533.763 386.82 534.331C387.363 534.75 387.882 535.17 388.425 535.589C389.141 536.157 389.857 536.724 390.549 537.316C391.067 537.76 391.61 538.205 392.129 538.649C392.821 539.241 393.487 539.858 394.179 540.45C394.673 540.894 395.191 541.363 395.685 541.832C396.377 542.473 397.043 543.115 397.71 543.781C398.179 544.25 398.649 544.694 399.093 545.163C399.809 545.878 400.501 546.619 401.192 547.384C401.587 547.803 401.982 548.222 402.353 548.642C402.427 548.716 402.476 548.79 402.55 548.864L160.143 688.72L183.282 728.767L436.926 582.446C451.891 573.81 468.091 567.839 485.057 564.705C487.255 564.286 489.453 563.94 491.675 563.644C492.49 563.521 493.305 563.447 494.12 563.348C495.503 563.175 496.911 563.003 498.294 562.855C499.257 562.756 500.22 562.707 501.183 562.633C502.442 562.534 503.702 562.435 504.937 562.361C505.949 562.312 506.962 562.287 507.974 562.262C509.184 562.213 510.394 562.188 511.58 562.188C512.617 562.188 513.654 562.188 514.691 562.188C515.877 562.188 517.062 562.238 518.272 562.262C519.309 562.312 520.346 562.361 521.384 562.41C522.594 562.484 523.779 562.558 524.989 562.657C526.002 562.731 527.014 562.83 528.051 562.929C529.286 563.052 530.496 563.2 531.706 563.348C532.694 563.471 533.682 563.595 534.67 563.743C535.139 563.817 535.608 563.891 536.053 563.965C535.929 564.36 535.83 564.754 535.707 565.125C535.435 566.013 535.164 566.926 534.892 567.839C534.546 569.023 534.2 570.208 533.879 571.392C533.632 572.305 533.386 573.218 533.163 574.131C532.867 575.315 532.571 576.524 532.299 577.709C532.101 578.622 531.879 579.559 531.706 580.472C531.459 581.681 531.212 582.89 530.99 584.099C530.817 585.012 530.644 585.925 530.496 586.838C530.299 588.072 530.101 589.331 529.928 590.589C529.805 591.477 529.681 592.365 529.558 593.278C529.385 594.586 529.261 595.894 529.138 597.202C529.064 598.041 528.965 598.88 528.891 599.743C528.768 601.199 528.693 602.655 528.619 604.086C528.57 604.802 528.521 605.517 528.496 606.233C528.397 608.404 528.348 610.575 528.348 612.747V616.843C528.348 616.843 528.125 616.843 528.002 616.793C527.459 616.719 526.915 616.67 526.372 616.621C525.335 616.497 524.298 616.374 523.285 616.3C522.643 616.251 521.976 616.201 521.334 616.152C520.396 616.078 519.482 616.029 518.544 615.979C517.852 615.955 517.161 615.93 516.469 615.905C515.58 615.88 514.691 615.856 513.802 615.856C513.086 615.856 512.37 615.856 511.678 615.856C510.789 615.856 509.9 615.88 509.011 615.905C508.295 615.905 507.604 615.955 506.888 615.979C505.974 616.029 505.06 616.078 504.171 616.152C503.504 616.201 502.813 616.251 502.146 616.3C501.158 616.399 500.146 616.497 499.158 616.621C498.565 616.695 497.997 616.744 497.405 616.818C497.281 616.818 497.158 616.843 497.059 616.867V616.793L492.713 617.534L489.601 618.052V618.126C476.587 620.667 464.165 625.306 452.657 631.944L431.37 644.207H431.296ZM228.696 262.909L431.32 379.793V400.051C431.32 401.655 431.271 403.234 431.222 404.838C431.222 405.356 431.147 405.899 431.123 406.417C431.073 407.478 430.999 408.539 430.901 409.575C430.851 410.192 430.777 410.834 430.703 411.451C430.604 412.413 430.505 413.351 430.382 414.313C430.308 414.979 430.209 415.621 430.11 416.287C429.987 417.2 429.839 418.113 429.69 419.026C429.567 419.692 429.468 420.358 429.345 421C429.172 421.913 428.999 422.801 428.801 423.714C428.653 424.356 428.53 425.022 428.357 425.663C428.135 426.576 427.912 427.489 427.665 428.402C427.493 429.019 427.344 429.636 427.172 430.253C426.9 431.24 426.604 432.227 426.282 433.189C426.11 433.732 425.961 434.275 425.789 434.793C425.764 434.892 425.715 434.99 425.69 435.064L183.282 295.233L160.143 335.28L402.649 475.185L408.132 478.344L409.218 478.961L413.787 481.601C419.393 484.833 424.776 488.411 429.888 492.31C433.493 495.073 436.976 497.985 440.334 501.044C442.631 503.142 444.853 505.338 447.002 507.559C448.064 508.669 449.101 509.779 450.138 510.89C451.175 512.025 452.212 513.16 453.225 514.344C454.682 516.047 456.09 517.799 457.473 519.551C457.942 520.143 458.362 520.735 458.806 521.327C459.695 522.511 460.609 523.696 461.473 524.905C461.992 525.621 462.486 526.361 462.98 527.101C463.745 528.211 464.511 529.322 465.227 530.457C465.745 531.246 466.215 532.036 466.709 532.825C467.4 533.911 468.067 535.021 468.733 536.132C469.227 536.971 469.697 537.81 470.166 538.649C470.783 539.759 471.401 540.845 471.993 541.98C472.438 542.843 472.882 543.707 473.327 544.595C473.895 545.706 474.438 546.841 474.981 547.976C475.401 548.864 475.821 549.752 476.216 550.641C476.735 551.776 477.229 552.935 477.723 554.095C478.093 555.008 478.488 555.921 478.834 556.834C479.007 557.278 479.155 557.698 479.328 558.142C463.103 561.621 447.594 567.592 433.197 575.908L429.641 577.955C425.072 566.901 418.899 556.637 411.218 547.384C402.081 536.329 391.141 527.101 378.72 519.921L154.808 390.773C119.519 370.417 107.394 325.163 127.767 289.903C141.448 266.24 166.341 253.015 191.901 253.015C204.421 253.015 217.114 256.198 228.721 262.884L228.696 262.909ZM438.778 141.732C438.778 101.018 471.919 67.905 512.666 67.905C532.422 67.905 550.968 75.5788 564.921 89.52C578.874 103.486 586.554 122.017 586.554 141.732V375.5L569.021 385.616C558.649 391.612 547.486 395.856 535.806 398.299V118.611H489.527V411.253C489.527 417.718 489.107 424.158 488.292 430.549C486.934 441.184 484.44 451.621 480.834 461.787C475.105 477.998 466.733 492.951 455.966 506.276C444.853 493.963 431.938 483.525 417.491 475.21L413.935 473.162C421.245 463.638 427.048 453.151 431.197 441.924C436.21 428.526 438.754 414.436 438.754 400.076V141.732H438.778ZM897.615 289.953C904.109 301.179 907.517 313.912 907.517 326.816C907.517 353.169 893.367 377.696 870.549 390.847L667.925 507.731L650.391 497.615C640.019 491.643 630.759 484.118 622.782 475.21L865.215 335.354L842.075 295.307L588.431 441.628C586.554 442.714 584.677 443.75 582.751 444.737C569.391 451.72 555.117 456.63 540.275 459.369C538.078 459.788 535.855 460.134 533.632 460.455C532.916 460.553 532.2 460.627 531.484 460.726C529.977 460.923 528.496 461.096 526.989 461.244C526.125 461.318 525.261 461.368 524.396 461.442C523.038 461.54 521.68 461.664 520.322 461.713C519.408 461.762 518.494 461.787 517.556 461.812C516.247 461.861 514.938 461.886 513.629 461.91C512.691 461.91 511.728 461.91 510.789 461.91C509.505 461.91 508.221 461.861 506.937 461.812C505.974 461.787 505.011 461.713 504.072 461.664C502.813 461.59 501.529 461.516 500.269 461.392C499.306 461.318 498.343 461.22 497.38 461.121C496.12 460.997 494.836 460.849 493.577 460.677C492.614 460.553 491.675 460.43 490.712 460.282C490.243 460.208 489.774 460.134 489.305 460.06C489.428 459.665 489.527 459.295 489.65 458.9C489.922 458.012 490.194 457.099 490.465 456.186C490.811 455.002 491.157 453.817 491.478 452.633C491.725 451.72 491.972 450.807 492.194 449.869C492.49 448.685 492.787 447.5 493.034 446.291C493.231 445.378 493.453 444.441 493.651 443.503C493.898 442.294 494.12 441.085 494.342 439.876C494.515 438.963 494.688 438.05 494.836 437.112C495.034 435.879 495.231 434.62 495.404 433.386C495.528 432.498 495.676 431.585 495.775 430.697C495.923 429.389 496.071 428.081 496.195 426.798C496.269 425.959 496.367 425.096 496.442 424.257C496.565 422.826 496.639 421.37 496.713 419.914C496.763 419.199 496.812 418.483 496.837 417.767C496.935 415.596 496.985 413.425 496.985 411.253V407.157C496.985 407.157 497.207 407.157 497.331 407.207C497.849 407.281 498.368 407.33 498.911 407.379C499.973 407.503 501.035 407.626 502.121 407.725C502.714 407.774 503.307 407.824 503.924 407.848C504.912 407.922 505.924 407.996 506.912 408.046C507.53 408.07 508.172 408.095 508.789 408.12C509.752 408.144 510.74 408.169 511.703 408.169C512.024 408.169 512.345 408.169 512.666 408.169C512.987 408.169 513.284 408.169 513.605 408.169C514.592 408.169 515.556 408.144 516.543 408.12C517.161 408.12 517.803 408.07 518.42 408.046C519.433 407.996 520.445 407.922 521.433 407.848C522.026 407.799 522.594 407.774 523.186 407.725C524.298 407.626 525.409 407.503 526.52 407.379C526.989 407.33 527.483 407.281 527.953 407.231C528.076 407.231 528.224 407.207 528.348 407.182V407.256L532.694 406.516C532.694 406.516 532.694 406.516 532.719 406.516L535.806 405.998V405.924C548.82 403.382 561.242 398.768 572.75 392.13L796.636 262.958C831.925 242.602 877.216 254.742 897.59 289.977L897.615 289.953Z" fill="black"/>
</svg>
