<?xml version="1.0" encoding="UTF-8"?>
<svg id="Layer_1" data-name="Layer 1" xmlns="http://www.w3.org/2000/svg" viewBox="0 0 2000 487.08">
  <defs>
    <style>
      .cls-1 {
        fill: #000;
        stroke-width: 0px;
      }
    </style>
  </defs>
  <path class="cls-1" d="M682.25,103.45h-119.64v280.19h41.98v-89.19h77.24c70.52,0,116.7-36.52,116.7-95.29s-46.18-95.71-116.28-95.71ZM680.15,258.34h-75.56v-118.8h75.56c49.95,0,74.3,22.67,74.3,59.61s-24.35,59.19-74.3,59.19ZM432.58,156.6c3.17-11.84,1.55-24.21-4.59-34.83-12.65-21.91-40.78-29.45-62.7-16.8l-102.32,59.08V45.9c0-25.3-20.59-45.9-45.9-45.9s-45.9,20.59-45.9,45.9v118.15l-102.32-59.08c-21.92-12.65-50.04-5.11-62.7,16.8C.04,132.39-1.59,144.76,1.58,156.6c3.18,11.84,10.77,21.74,21.38,27.87l102.32,59.08-102.32,59.07c-10.62,6.13-18.21,16.03-21.38,27.87-3.17,11.84-1.55,24.21,4.59,34.83,8.49,14.71,23.95,22.93,39.83,22.93,7.78,0,15.66-1.98,22.87-6.14l102.32-59.07v118.15c0,25.31,20.59,45.9,45.9,45.9s45.9-20.59,45.9-45.9v-118.15l102.32,59.08c7.21,4.16,15.09,6.14,22.87,6.14,15.88,0,31.34-8.23,39.83-22.93,6.13-10.62,7.76-22.99,4.59-34.83-3.18-11.84-10.77-21.74-21.38-27.87l-102.32-59.08,102.32-59.07c10.62-6.13,18.21-16.03,21.38-27.87ZM178.68,178.65V45.9c0-21.17,17.23-38.4,38.4-38.4s38.4,17.23,38.4,38.4v122.47l-5.15,2.98c-6.26,3.62-13.09,6.16-20.14,7.58V32.78h-26.23v151.27c0,19.29-6.27,38.15-17.73,53.6-5.99-6.62-12.89-12.42-20.51-17.2,8.37-12.26,12.95-26.94,12.95-41.81ZM26.71,177.98c-8.88-5.13-15.24-13.41-17.89-23.32-2.66-9.91-1.29-20.26,3.84-29.15,10.59-18.34,34.12-24.64,52.46-14.06l106.07,61.24v5.95c0,7.23-1.2,14.42-3.5,21.23L41.12,126.81l-13.11,22.71,131.01,75.63c16.71,9.65,29.91,24.51,37.56,42.16-8.73,1.88-17.2,4.95-25.15,9.17-6.43-13.38-16.86-24.69-29.74-32.12L26.71,177.98ZM65.12,375.62c-18.34,10.59-41.87,4.28-52.46-14.05-5.13-8.88-6.49-19.24-3.84-29.15,2.66-9.91,9.01-18.19,17.89-23.32l106.07-61.24,5.15,2.97c6.26,3.62,11.88,8.25,16.64,13.65l-126.57,73.07,13.11,22.71,131.01-75.63c16.71-9.65,36.18-13.65,55.28-11.45-2.74,8.5-4.31,17.37-4.64,26.37-14.8-1.13-29.81,2.25-42.69,9.69l-114.96,66.37ZM255.49,308.44v132.74c0,21.18-17.23,38.4-38.4,38.4s-38.4-17.23-38.4-38.4v-122.47l5.15-2.97c6.26-3.62,13.09-6.16,20.14-7.58v146.14h26.23v-151.27c0-19.29,6.27-38.15,17.73-53.6,5.99,6.62,12.89,12.42,20.51,17.2-8.37,12.26-12.95,26.94-12.95,41.81ZM407.45,309.1c8.88,5.13,15.24,13.41,17.89,23.32,2.66,9.91,1.29,20.26-3.84,29.15-10.59,18.34-34.12,24.64-52.46,14.05l-106.07-61.24v-5.95c0-7.24,1.2-14.42,3.5-21.23l126.57,73.07,13.11-22.71-131.01-75.63c-16.71-9.65-29.91-24.51-37.56-42.16,8.73-1.88,17.2-4.95,25.15-9.17,6.43,13.38,16.86,24.69,29.74,32.12l114.96,66.37ZM301.39,239.22l-5.15-2.97c-6.26-3.62-11.88-8.26-16.64-13.65l126.57-73.07-13.11-22.71-131.01,75.63c-16.71,9.65-36.18,13.65-55.28,11.45,2.74-8.5,4.31-17.37,4.64-26.37,14.8,1.13,29.81-2.25,42.68-9.69l114.96-66.37c18.34-10.59,41.87-4.28,52.46,14.06,5.13,8.88,6.49,19.23,3.84,29.15-2.66,9.91-9.01,18.19-17.89,23.32l-106.07,61.24ZM1295.61,203.13c31.48,0,55.41,17.63,60.87,43.66h41.98c-7.98-46.18-48.27-78.92-102.84-78.92-65.9,0-112.08,48.27-112.08,109.98s46.18,110.4,112.08,110.4c54.57,0,94.87-32.74,102.84-78.92h-41.98c-5.46,26.03-29.38,43.66-60.87,43.66-44.08,0-70.1-32.32-70.1-75.14s26.03-74.72,70.1-74.72ZM1743.15,145.42h40.3v-41.98h-40.3v41.98ZM1743.15,383.64h39.88v-209.89h-39.88v209.89ZM824.38,230v153.64h39.88v-152.8c0-13.01,7.56-20.57,20.57-20.57h38.2v-36.52h-41.14c-40.3,0-57.51,24.77-57.51,56.25ZM1936.61,265.26l-48.27-8.82c-18.47-3.36-26.45-11.75-26.45-25.19,0-15.11,13.85-22.25,36.1-22.25h87.31v-35.26h-81.44c-52.47,0-82.7,21.83-82.7,59.61,0,29.8,16.79,52.05,57.51,59.19l47.85,8.4c19.31,3.36,32.32,9.23,32.32,24.77,0,14.69-12.17,22.67-34.84,22.67h-94.03v35.26h89.41c51.63,0,80.6-20.57,80.6-60.03,0-32.74-23.93-51.21-63.39-58.35ZM1616.93,351.31h-13.85l-57.09-177.57h-44.5l59.19,176.73c7.56,22.25,18.05,37.78,49.11,37.78s40.3-15.53,47.85-37.78l60.03-176.73h-43.24l-57.51,177.57ZM1047.66,167.87c-65.9,0-112.08,48.27-112.08,109.98s46.18,110.4,112.08,110.4,111.66-48.69,111.66-110.4-45.76-109.98-111.66-109.98ZM1047.66,352.99c-44.08,0-70.1-32.74-70.1-75.14s26.03-74.72,70.1-74.72,69.68,32.32,69.68,74.72-25.61,75.14-69.68,75.14ZM1436.56,383.64h39.88v-209.89h-39.88v209.89ZM1436.56,145.42h40.3v-41.98h-40.3v41.98Z"/>
</svg>